<?xml version="1.0" encoding="UTF-8" standalone="no"?>
<svg version="1.0" xmlns="http://www.w3.org/2000/svg"
 width="652.000000pt" height="172.000000pt" viewBox="0 0 652.000000 172.000000"
 preserveAspectRatio="xMidYMid meet">

<g transform="translate(0.000000,172.000000) scale(0.100000,-0.100000)"
fill="#000000" stroke="none">
<path d="M5420 1575 c-154 -32 -249 -83 -365 -200 -65 -64 -101 -110 -127
-160 -45 -88 -54 -115 -36 -114 7 0 32 41 56 90 34 70 60 106 115 162 132 134
273 196 458 205 209 9 363 -51 510 -197 69 -69 94 -103 129 -173 49 -100 86
-125 45 -30 -134 306 -466 482 -785 417z"/>
<path d="M617 1520 c-50 -39 -43 -90 12 -90 49 0 98 51 86 90 -9 27 -64 27
-98 0z"/>
<path d="M5402 1470 c-40 -10 -101 -34 -135 -52 -81 -42 -211 -172 -255 -255
l-33 -63 570 0 c314 0 571 3 571 6 0 3 -14 33 -31 65 -68 126 -199 237 -341
286 -102 35 -245 41 -346 13z m16 -132 c21 -21 13 -29 -24 -22 -46 9 -43 -16
3 -28 36 -9 47 -38 26 -67 -22 -32 -93 -21 -93 14 0 17 16 20 25 5 9 -15 45
-12 45 3 0 7 -15 17 -32 22 -57 17 -47 85 11 85 15 0 32 -5 39 -12z m130 0
c-3 -7 -19 -14 -36 -16 -39 -4 -45 -32 -6 -32 31 0 28 -24 -5 -28 -32 -5 -20
-26 17 -30 48 -5 42 -32 -6 -32 -52 0 -62 14 -62 87 l0 63 51 0 c36 0 49 -4
47 -12z m52 -48 l0 -60 30 0 c20 0 30 -5 30 -15 0 -19 -60 -21 -78 -3 -7 7
-12 39 -12 75 0 49 3 63 15 63 12 0 15 -13 15 -60z m170 41 c15 -30 12 -92 -7
-113 -20 -22 -56 -23 -77 -2 -19 19 -22 104 -4 122 20 20 76 15 88 -7z"/>
<path d="M5702 1278 c2 -35 7 -43 23 -43 17 0 20 7 20 40 0 34 -3 40 -23 43
-22 3 -23 0 -20 -40z"/>
<path d="M1233 1439 c-56 -16 -82 -79 -45 -112 27 -25 66 -30 105 -13 61 25
64 104 6 125 -18 6 -32 11 -33 10 -1 0 -15 -5 -33 -10z"/>
<path d="M615 1397 c-27 -15 -41 -30 -43 -47 -3 -35 52 -126 87 -145 28 -14
31 -14 50 11 23 29 44 118 39 166 -3 31 -5 33 -48 36 -32 1 -56 -4 -85 -21z"/>
<path d="M327 1370 c-49 -39 -27 -84 39 -78 46 4 85 48 68 76 -17 26 -75 27
-107 2z"/>
<path d="M1005 1297 c-58 -59 -96 -140 -76 -160 25 -25 149 0 234 46 65 36 60
96 -12 144 -56 38 -87 31 -146 -30z"/>
<path d="M432 1300 c-24 -17 -45 -42 -48 -57 -6 -22 -2 -31 26 -55 38 -31 118
-61 152 -56 30 4 35 43 13 107 -31 94 -73 112 -143 61z"/>
<path d="M1764 1284 c-41 -9 -59 -41 -59 -105 1 -79 13 -90 107 -97 83 -5 98
-13 98 -51 0 -38 -17 -51 -66 -51 -58 0 -74 8 -74 36 0 21 -5 24 -36 24 -37 0
-37 0 -31 -37 4 -20 13 -43 21 -51 36 -36 206 -33 233 4 7 10 13 44 13 79 0
82 -13 94 -116 103 l-79 7 0 40 0 40 60 0 c55 0 60 -2 63 -22 3 -19 10 -23 37
-23 33 0 34 1 29 33 -11 54 -33 69 -111 72 -37 2 -78 1 -89 -1z"/>
<path d="M2030 1110 l0 -180 30 0 30 0 0 75 0 75 75 0 75 0 0 -75 0 -75 35 0
35 0 0 181 0 180 -32 -3 -33 -3 -3 -72 -3 -73 -74 0 -75 0 0 75 0 75 -30 0
-30 0 0 -180z"/>
<path d="M2422 1276 c-45 -21 -62 -67 -62 -163 0 -156 24 -185 149 -186 132
-1 156 32 149 204 -3 91 -6 101 -30 126 -23 22 -37 26 -100 30 -50 2 -83 -1
-106 -11z m149 -56 c17 -10 19 -22 19 -109 0 -80 -3 -101 -17 -112 -21 -18
-122 -16 -134 2 -5 8 -9 58 -9 111 0 82 3 99 18 107 22 14 98 14 123 1z"/>
<path d="M2710 1110 l0 -180 35 0 35 0 0 55 0 55 59 0 c84 0 118 14 132 57 14
45 7 139 -13 159 -22 22 -81 33 -170 34 l-78 0 0 -180z m188 108 c7 -7 12 -31
12 -55 0 -51 -17 -63 -84 -63 l-46 0 0 65 0 65 53 0 c29 0 58 -5 65 -12z"/>
<path d="M3030 1111 l0 -181 30 0 c30 0 30 1 30 55 l0 55 54 0 c122 0 147 20
147 119 1 113 -11 122 -158 129 l-103 5 0 -182z m181 109 c14 -8 19 -21 19
-50 0 -54 -20 -70 -86 -70 l-54 0 0 65 0 65 51 0 c28 0 59 -5 70 -10z"/>
<path d="M3347 1284 c-4 -4 -7 -85 -7 -181 l0 -173 35 0 35 0 -2 178 -3 177
-25 3 c-14 2 -29 0 -33 -4z"/>
<path d="M3477 1283 c-4 -3 -7 -84 -7 -180 l0 -173 35 0 34 0 3 139 3 140 64
-140 64 -139 59 0 58 0 -2 178 -3 177 -30 0 -30 0 -5 -145 c-3 -80 -7 -140 -8
-133 -1 7 -31 73 -66 148 l-65 135 -49 0 c-27 0 -52 -3 -55 -7z"/>
<path d="M3919 1284 c-15 -3 -37 -16 -50 -30 -23 -24 -24 -33 -24 -150 0 -113
2 -125 21 -145 45 -45 197 -46 241 -3 20 20 23 33 23 94 l0 71 -72 -3 c-67 -3
-73 -5 -76 -25 -3 -21 1 -23 42 -23 44 0 46 -1 46 -29 0 -52 -67 -77 -134 -51
-26 9 -26 11 -26 114 0 122 3 126 90 126 44 0 52 -3 62 -25 8 -18 19 -25 40
-25 24 0 28 4 28 29 0 54 -26 72 -110 76 -41 2 -87 1 -101 -1z"/>
<path d="M155 1158 c-32 -17 -45 -39 -45 -75 0 -36 21 -53 65 -53 34 0 85 50
85 83 0 47 -57 72 -105 45z"/>
<path d="M312 1147 c-44 -46 -68 -146 -40 -164 18 -11 135 -5 177 8 37 12 71
36 71 51 0 19 -74 88 -115 107 -56 26 -67 26 -93 -2z"/>
<path d="M1155 1140 c-95 -37 -155 -80 -155 -111 0 -35 109 -69 220 -69 64 0
100 21 100 58 0 35 -22 98 -43 120 -25 27 -56 27 -122 2z"/>
<path d="M1351 1134 c-28 -35 -26 -56 5 -93 35 -42 92 -44 123 -5 12 15 21 37
21 49 0 12 -9 34 -21 49 -16 21 -29 26 -64 26 -35 0 -48 -5 -64 -26z"/>
<path d="M4883 956 c-17 -8 -39 -28 -47 -45 -48 -92 23 -182 131 -166 l43 6 0
45 c0 36 -3 44 -18 44 -13 0 -18 -8 -17 -27 0 -25 -4 -28 -36 -31 -45 -4 -71
23 -71 73 0 55 26 77 84 73 34 -2 49 1 53 11 3 8 3 16 1 19 -13 12 -94 11
-123 -2z"/>
<path d="M5934 954 c-37 -18 -54 -51 -54 -103 0 -69 69 -121 140 -106 47 10
38 35 -13 35 -56 0 -77 17 -84 67 -7 56 19 83 82 83 32 0 45 4 45 14 0 29 -66
35 -116 10z"/>
<path d="M5347 855 c33 -98 36 -105 61 -105 25 0 30 7 64 105 l37 105 -24 0
c-20 0 -26 -9 -46 -75 -12 -42 -25 -77 -28 -79 -3 -3 -17 31 -30 75 -21 69
-27 79 -47 79 l-23 0 36 -105z"/>
<path d="M5530 945 c0 -10 10 -15 30 -15 l30 0 0 -90 c0 -83 1 -90 20 -90 19
0 20 7 20 90 l0 90 30 0 c20 0 30 5 30 15 0 12 -16 15 -80 15 -64 0 -80 -3
-80 -15z"/>
<path d="M5720 855 l0 -105 65 0 c50 0 65 3 65 14 0 10 -14 16 -42 18 -38 3
-43 6 -46 30 -3 25 0 27 39 30 58 4 63 26 7 30 -39 3 -43 6 -46 31 -3 26 -2
27 42 27 34 0 46 4 46 15 0 12 -14 15 -65 15 l-65 0 0 -105z"/>
<path d="M6090 855 c0 -98 1 -105 20 -105 17 0 20 7 20 46 l0 45 47 -3 48 -3
-3 -42 c-3 -40 -2 -43 22 -43 l26 0 0 105 0 105 -25 0 c-22 0 -25 -4 -25 -40
l0 -40 -45 0 -45 0 0 40 c0 33 -3 40 -20 40 -19 0 -20 -7 -20 -105z"/>
<path d="M283 925 c-37 -16 -49 -47 -38 -103 9 -49 31 -82 56 -82 32 0 98 38
150 87 56 52 63 83 24 101 -35 16 -153 14 -192 -3z"/>
<path d="M1042 921 c-52 -14 -58 -25 -32 -66 28 -45 123 -117 185 -140 42 -16
46 -17 70 -1 34 22 47 58 43 120 -3 47 -6 52 -38 68 -41 19 -180 31 -228 19z"/>
<path d="M3598 910 c-18 -14 -20 -21 -11 -31 10 -10 15 -10 27 0 12 10 21 9
46 -4 35 -18 65 -13 80 15 11 21 -11 35 -28 18 -8 -8 -23 -6 -51 5 -37 15 -41
15 -63 -3z"/>
<path d="M5141 848 c-33 -21 -42 -48 -16 -48 24 0 96 40 91 49 -12 18 -45 18
-75 -1z"/>
<path d="M110 840 c-26 -26 -26 -81 -2 -103 60 -54 152 31 108 98 -21 32 -77
34 -106 5z"/>
<path d="M2190 833 c-50 -5 -89 -23 -101 -45 -14 -27 -23 -155 -15 -212 10
-66 39 -95 103 -103 28 -3 72 -2 97 1 52 8 70 28 79 89 6 37 5 37 -29 37 -29
0 -34 -3 -34 -25 0 -15 -8 -29 -21 -36 -22 -11 -104 -7 -117 6 -4 3 -8 48 -10
98 -4 104 5 125 53 127 75 5 85 1 92 -30 4 -25 10 -30 34 -30 27 0 29 3 29 40
0 49 -27 80 -69 80 -16 0 -35 2 -43 3 -7 2 -29 2 -48 0z"/>
<path d="M3950 833 c-94 -14 -110 -40 -110 -176 0 -125 14 -162 67 -176 88
-25 188 -6 215 41 8 15 13 59 13 128 0 116 -17 166 -58 174 -42 9 -102 13
-127 9z m108 -76 c19 -15 17 -191 -4 -211 -19 -20 -103 -21 -128 -3 -21 16
-31 110 -19 177 7 39 12 46 38 51 36 7 95 0 113 -14z"/>
<path d="M2400 649 l0 -180 33 3 32 3 3 178 2 177 -35 0 -35 0 0 -181z"/>
<path d="M2530 649 l0 -182 115 5 c130 6 147 14 165 77 14 52 12 176 -4 215
-24 57 -47 66 -168 66 l-108 0 0 -181z m210 102 c15 -30 13 -173 -4 -196 -10
-14 -30 -20 -80 -23 l-66 -4 0 121 0 121 70 0 c58 0 71 -3 80 -19z"/>
<path d="M2947 823 c-6 -11 -107 -338 -107 -347 0 -4 14 -6 32 -4 27 2 34 9
42 36 l9 33 76 -3 75 -3 10 -33 c8 -29 13 -33 40 -30 17 2 31 5 31 8 0 3 -25
83 -55 178 l-54 172 -47 0 c-26 0 -50 -3 -52 -7z m80 -136 c12 -39 23 -78 23
-84 0 -13 -90 -19 -102 -8 -3 3 6 43 21 90 14 46 27 82 30 79 2 -2 15 -37 28
-77z"/>
<path d="M3190 649 l0 -182 113 5 c61 2 122 10 133 16 32 17 44 63 44 162 0
161 -20 180 -185 180 l-105 0 0 -181z m211 104 c9 -11 14 -43 14 -99 0 -104
-10 -116 -95 -122 l-60 -4 0 121 0 121 64 0 c47 0 67 -4 77 -17z"/>
<path d="M3586 748 c-14 -46 -38 -124 -54 -175 -16 -51 -27 -95 -24 -98 3 -3
18 -5 33 -5 24 0 30 6 37 33 l8 32 76 3 75 3 9 -33 c8 -27 15 -34 42 -36 18
-2 32 0 32 4 0 3 -25 85 -56 180 l-55 174 -49 0 -49 0 -25 -82z m127 -150 c-7
-14 -103 -9 -103 5 0 11 26 97 47 157 3 8 18 -23 33 -70 14 -47 25 -88 23 -92z"/>
<path d="M1347 802 c-45 -50 -2 -142 66 -142 45 0 67 26 67 78 0 32 -6 45 -26
61 -33 26 -85 27 -107 3z"/>
<path d="M479 786 c-53 -19 -105 -53 -134 -88 -21 -25 -25 -38 -21 -62 7 -36
76 -106 104 -106 40 0 125 151 126 225 1 46 -15 53 -75 31z"/>
<path d="M921 780 c-12 -7 -12 -18 2 -76 25 -99 74 -185 121 -208 36 -17 40
-18 72 -2 42 19 74 70 74 115 0 27 -9 42 -42 74 -62 59 -196 117 -227 97z"/>
<path d="M593 676 c-47 -53 -93 -142 -93 -178 0 -33 46 -73 101 -88 83 -23
103 5 102 140 0 109 -19 170 -52 170 -10 0 -37 -20 -58 -44z"/>
<path d="M776 698 c-22 -34 -39 -146 -31 -206 4 -34 15 -62 30 -80 21 -24 30
-27 84 -27 108 0 131 56 73 177 -29 63 -108 158 -130 158 -6 0 -18 -10 -26
-22z"/>
<path d="M4886 638 c14 -47 63 -135 109 -196 82 -109 197 -189 337 -236 68
-23 92 -26 215 -26 166 1 201 8 322 66 126 61 247 178 309 301 41 79 51 113
34 113 -5 0 -28 -39 -52 -87 -35 -72 -59 -104 -129 -173 -141 -140 -286 -200
-480 -200 -115 0 -187 17 -296 69 -143 68 -264 192 -326 335 -13 31 -30 56
-37 56 -9 0 -11 -7 -6 -22z"/>
<path d="M4990 647 c0 -7 15 -39 34 -70 211 -351 672 -412 956 -127 62 62 140
175 140 204 0 3 -254 6 -565 6 -459 0 -565 -2 -565 -13z m330 -160 c0 -7 -13
-28 -29 -47 -28 -33 -30 -34 -55 -21 -33 18 -33 36 0 84 l25 38 30 -21 c16
-12 29 -27 29 -33z m553 12 c31 -36 33 -46 10 -71 -24 -27 -38 -22 -74 23
l-32 41 24 19 c33 25 40 24 72 -12z m-503 -51 c11 -4 7 -9 -12 -16 -14 -6 -29
-20 -33 -31 -3 -12 -13 -21 -21 -21 -18 0 -18 3 7 51 14 29 24 38 32 31 7 -5
19 -12 27 -14z m423 -16 c40 -41 40 -56 0 -46 -19 5 -25 2 -30 -15 -8 -30 -20
-26 -27 10 -10 51 -7 89 7 89 7 0 30 -17 50 -38z m-222 -5 c-13 -13 -26 -3
-16 12 3 6 11 8 17 5 6 -4 6 -10 -1 -17z m52 -44 c6 -59 3 -74 -12 -57 -15 16
-20 114 -6 114 7 0 14 -22 18 -57z m44 20 c7 -30 14 -38 31 -38 35 -1 30 -20
-6 -23 -34 -3 -40 4 -56 71 -5 20 -3 27 8 27 8 0 18 -16 23 -37z m-221 12 c3
-8 0 -30 -6 -50 -9 -27 -15 -33 -24 -26 -7 6 -16 7 -20 3 -4 -4 -14 1 -21 11
-10 14 -11 26 -3 48 8 23 16 29 39 29 17 0 32 -6 35 -15z m78 -4 c17 -6 16 -9
-9 -39 -26 -31 -26 -32 -6 -32 12 0 21 -4 21 -10 0 -13 -57 -13 -65 1 -4 6 2
21 14 33 25 26 26 36 6 36 -8 0 -15 5 -15 10 0 11 26 12 54 1z m54 -49 c2 -33
0 -42 -12 -42 -12 0 -16 11 -16 46 0 59 24 55 28 -4z"/>
<path d="M5260 490 c0 -5 7 -10 15 -10 8 0 15 5 15 10 0 6 -7 10 -15 10 -8 0
-15 -4 -15 -10z"/>
<path d="M5235 461 c-6 -11 20 -33 28 -24 4 3 7 10 7 14 0 11 -29 19 -35 10z"/>
<path d="M5815 491 c-10 -17 12 -21 25 -6 10 12 10 15 -3 15 -9 0 -18 -4 -22
-9z"/>
<path d="M5845 459 c-10 -15 1 -23 20 -15 9 3 13 10 10 16 -8 13 -22 13 -30
-1z"/>
<path d="M5756 415 c4 -8 10 -12 15 -9 11 6 2 24 -11 24 -5 0 -7 -7 -4 -15z"/>
<path d="M5397 403 c-13 -12 -7 -33 8 -33 8 0 15 9 15 20 0 20 -11 26 -23 13z"/>
<path d="M273 579 c-71 -26 -49 -149 27 -149 36 0 60 32 60 81 0 51 -42 85
-87 68z"/>
<path d="M1179 510 c-29 -17 -42 -64 -29 -104 35 -107 160 -98 160 12 0 74
-73 126 -131 92z"/>
<path d="M510 380 c-31 -31 -27 -85 9 -121 35 -34 72 -38 101 -9 47 47 -4 150
-75 150 -8 0 -24 -9 -35 -20z"/>
<path d="M865 348 c-28 -16 -35 -28 -35 -61 0 -60 44 -106 102 -107 99 0 83
157 -17 175 -16 3 -39 0 -50 -7z"/>
</g>
</svg>